<svg xmlns="http://www.w3.org/2000/svg" viewBox="0 0 1050 1050">
  <circle cx="525" cy="525" r="525" fill="#178cb9"/>
  <circle cx="504.75" cy="504.75" r="504.75" fill="#f1eab1"/>
  <circle cx="486" cy="486" r="486" fill="#c3160a"/>
  <path fill="#fff" d="M606.86 319.23c24.72 53.34 47.9 107.94 69.54 163.8 10.5 26.97 20.4 53.64 29.67 80l25.97-109.2c4.94-21.96 5.1-37.8.46-47.53-4.64-9.73-15.6-16.47-32.92-20.24-3.7-11.3-6.33-22.9-7.88-34.83-1.54-11.92-2.32-24.47-2.32-37.65 12.37 1.26 25.5 2.04 39.4 2.36 13.92.3 30.46.47 49.62.47 19.16 0 36-.1 50.53-.4 14.53-.3 28.6-1.1 42.2-2.3 0 10.7-.93 23.2-2.8 37.7-1.84 14.46-4.62 26.07-8.33 34.85-14.22 3.15-25.35 8.95-33.38 17.43-8.04 8.45-15.15 23.04-21.33 43.75L716.2 756c-6.18 0-14.2-.16-24.1-.47-9.9-.32-20.1-.63-30.6-.95-10.5-.3-20.4-1.1-29.68-2.35-9.28-1.25-16.4-2.82-21.33-4.7-13-26.36-24.4-50.2-34.3-71.55-9.9-21.33-18.9-41.57-26.9-60.7-8.1-19.15-15.2-38.13-21.4-56.96-1.3-5.02-2.8-10.35-4.7-16L429.72 756c-6.2 0-14.2-.16-24.1-.47-9.9-.32-20.1-.63-30.6-.95-10.5-.3-20.4-1.1-29.7-2.35-9.22-1.25-16.33-2.82-21.3-4.7-8.63-25.1-17.8-52.1-27.33-80.96-9.6-28.86-19.4-57.26-29.3-85.2-9.9-27.9-19.2-54.1-27.8-78.58-8.7-24.5-16.1-44.9-22.3-61.2-6.8-18.2-14.58-31.6-23.2-40-8.7-8.5-19.5-13.4-32.5-14.6-3.1-8.8-5.7-19.6-7.9-32.5-2.16-12.9-3.24-26.5-3.24-41 47 1.9 92.1 2.8 135.4 2.8 25.32 0 51.9-.2 79.72-.5 27.8-.3 53.45-1.1 76.94-2.4 0 14.43-1.1 27.92-3.26 40.5-2.2 12.52-4.8 23.2-7.9 32-8.64.6-15.3 1.7-19.9 3.3-4.66 1.54-7.6 4.7-8.8 9.4-1.27 4.7-.96 11.43.9 20.22 1.83 8.8 4.92 20.4 9.25 34.85 6.8 24.45 13.6 51.75 20.4 81.9 1.85 5.62 3.4 11.9 4.64 18.8l92.7-243.8c12.4 0 25.5.47 39.4 1.4 13.95.95 26.16 3.3 36.67 7.07z"/>
</svg>
