<?xml version="1.0" encoding="UTF-8" standalone="no"?><!DOCTYPE svg PUBLIC "-//W3C//DTD SVG 1.1//EN" "http://www.w3.org/Graphics/SVG/1.1/DTD/svg11.dtd"><svg width="100%" height="100%" viewBox="0 0 1050 1050" version="1.1" xmlns="http://www.w3.org/2000/svg" xmlns:xlink="http://www.w3.org/1999/xlink" xml:space="preserve" style="fill-rule:evenodd;clip-rule:evenodd;stroke-linejoin:round;stroke-miterlimit:1.41421;"><circle cx="525" cy="525" r="525" style="fill:#178cb9;"/><circle cx="504.75" cy="504.75" r="504.75" style="fill:#f1eab1;"/><circle cx="485.996" cy="485.996" r="485.996" style="fill:#c3160a;"/><path d="M606.857,319.23c24.727,53.34 47.908,107.936 69.544,163.787c10.509,26.984 20.399,53.655 29.672,80.011l25.963,-109.191c4.945,-21.964 5.1,-37.809 0.464,-47.536c-4.637,-9.727 -15.609,-16.473 -32.918,-20.238c-3.709,-11.296 -6.336,-22.906 -7.882,-34.829c-1.545,-11.923 -2.318,-24.474 -2.318,-37.652c12.364,1.255 25.5,2.039 39.409,2.353c13.908,0.314 30.444,0.471 49.607,0.471c19.164,0 36.009,-0.157 50.536,-0.471c14.527,-0.314 28.59,-1.098 42.19,-2.353c0,10.668 -0.928,23.219 -2.782,37.652c-1.855,14.434 -4.636,26.043 -8.345,34.829c-14.218,3.137 -25.345,8.942 -33.381,17.414c-8.037,8.472 -15.146,23.062 -21.327,43.771l-89.016,308.748c-6.182,0 -14.218,-0.156 -24.109,-0.47c-9.891,-0.314 -20.09,-0.628 -30.599,-0.942c-10.509,-0.313 -20.4,-1.098 -29.672,-2.353c-9.273,-1.255 -16.382,-2.824 -21.327,-4.706c-12.982,-26.357 -24.418,-50.203 -34.308,-71.54c-9.891,-21.336 -18.855,-41.574 -26.891,-60.714c-8.036,-19.14 -15.145,-38.123 -21.327,-56.949c-1.236,-5.02 -2.781,-10.355 -4.636,-16.002l-93.652,213.676c-6.182,0 -14.218,-0.156 -24.109,-0.47c-9.89,-0.314 -20.09,-0.628 -30.599,-0.942c-10.509,-0.313 -20.4,-1.098 -29.672,-2.353c-9.273,-1.255 -16.382,-2.824 -21.327,-4.706c-8.654,-25.102 -17.772,-52.086 -27.354,-80.953c-9.581,-28.867 -19.318,-57.263 -29.208,-85.188c-9.891,-27.926 -19.164,-54.125 -27.818,-78.599c-8.654,-24.474 -16.072,-44.869 -22.254,-61.185c-6.8,-18.199 -14.527,-31.534 -23.181,-40.006c-8.655,-8.472 -19.473,-13.335 -32.454,-14.59c-3.091,-8.786 -5.718,-19.611 -7.882,-32.475c-2.163,-12.865 -3.245,-26.514 -3.245,-40.947c46.981,1.882 92.107,2.824 135.379,2.824c25.345,0 51.926,-0.157 79.743,-0.471c27.818,-0.314 53.472,-1.098 76.962,-2.353c0,14.433 -1.082,27.925 -3.245,40.476c-2.164,12.551 -4.791,23.219 -7.882,32.005c-8.654,0.627 -15.299,1.725 -19.936,3.294c-4.636,1.569 -7.572,4.707 -8.809,9.413c-1.236,4.707 -0.927,11.453 0.928,20.238c1.854,8.786 4.945,20.395 9.272,34.829c6.8,24.474 13.6,51.772 20.4,81.893c1.854,5.648 3.4,11.924 4.636,18.827l92.725,-243.799c12.364,0 25.5,0.471 39.408,1.412c13.909,0.941 26.118,3.294 36.627,7.06Z" style="fill:#fff;fill-rule:nonzero;"/></svg>